<svg width="104.000000" height="16.000000" viewBox="0 0 104 16" fill="none" xmlns="http://www.w3.org/2000/svg" xmlns:xlink="http://www.w3.org/1999/xlink">
	<desc>
			Created with Pixso.
	</desc>
	<defs>
		<clipPath id="clip6_33">
			<rect id="Frame" width="16.000000" height="16.000000" transform="translate(0.000000 -0.500000)" fill="white" fill-opacity="0"/>
		</clipPath>
		<clipPath id="clip6_35">
			<rect id="Frame" width="16.000000" height="16.000000" transform="translate(22.000000 -0.500000)" fill="white" fill-opacity="0"/>
		</clipPath>
		<clipPath id="clip6_37">
			<rect id="Frame" width="16.000000" height="16.000000" transform="translate(44.000000 -0.500000)" fill="white" fill-opacity="0"/>
		</clipPath>
		<clipPath id="clip6_39">
			<rect id="Frame" width="16.000000" height="16.000000" transform="translate(66.000000 -0.500000)" fill="white" fill-opacity="0"/>
		</clipPath>
		<clipPath id="clip6_41">
			<rect id="Frame" width="16.000000" height="16.000000" transform="translate(88.000000 -0.500000)" fill="white" fill-opacity="0"/>
		</clipPath>
	</defs>
	<rect id="Frame" width="16.000000" height="16.000000" transform="translate(0.000000 -0.500000)" fill="#FFFFFF" fill-opacity="0"/>
	<g clip-path="url(#clip6_33)">
		<path id="Vector" d="M7.38 1.25C7.59 0.69 8.4 0.69 8.61 1.25L9.99 5.07C10.09 5.33 10.34 5.5 10.61 5.5L14 5.5C14.63 5.5 14.9 6.28 14.41 6.66L12 8.83C11.89 8.91 11.81 9.03 11.77 9.16C11.73 9.29 11.73 9.43 11.78 9.56L12.66 13.29C12.88 13.89 12.18 14.41 11.66 14.04L8.38 11.96C8.27 11.88 8.13 11.84 8 11.84C7.86 11.84 7.72 11.88 7.61 11.96L4.33 14.04C3.81 14.41 3.11 13.89 3.33 13.29L4.21 9.56C4.26 9.43 4.26 9.29 4.22 9.16C4.18 9.03 4.1 8.91 4 8.83L1.58 6.66C1.09 6.28 1.36 5.5 1.99 5.5L5.38 5.5C5.51 5.5 5.64 5.46 5.75 5.38C5.86 5.3 5.95 5.2 6 5.07L7.38 1.25L7.38 1.25Z" fill="#F7AB3A" fill-opacity="1.000000" fill-rule="nonzero"/>
		<path id="Vector" d="M8.61 1.25L9.99 5.07C10.09 5.33 10.34 5.5 10.61 5.5L14 5.5C14.63 5.5 14.9 6.28 14.41 6.66L12 8.83C11.89 8.91 11.81 9.03 11.77 9.16C11.73 9.29 11.73 9.43 11.78 9.56L12.66 13.29C12.88 13.89 12.18 14.41 11.66 14.04L8.38 11.96C8.27 11.88 8.13 11.84 8 11.84C7.86 11.84 7.72 11.88 7.61 11.96L4.33 14.04C3.81 14.41 3.11 13.89 3.33 13.29L4.21 9.56C4.26 9.43 4.26 9.29 4.22 9.16C4.18 9.03 4.1 8.91 4 8.83L1.58 6.66C1.09 6.28 1.36 5.5 1.99 5.5L5.38 5.5C5.51 5.5 5.64 5.46 5.75 5.38C5.86 5.3 5.95 5.2 6 5.07L7.38 1.25L7.38 1.25C7.59 0.69 8.4 0.69 8.61 1.25Z" stroke="#F7AB3A" stroke-opacity="1.000000" stroke-width="0.500000" stroke-linejoin="round"/>
	</g>
	<rect id="Frame" width="16.000000" height="16.000000" transform="translate(22.000000 -0.500000)" fill="#FFFFFF" fill-opacity="0"/>
	<g clip-path="url(#clip6_35)">
		<path id="Vector" d="M29.38 1.25C29.59 0.69 30.4 0.69 30.61 1.25L31.99 5.07C32.09 5.33 32.34 5.5 32.61 5.5L36 5.5C36.63 5.5 36.9 6.28 36.41 6.66L34 8.83C33.89 8.91 33.81 9.03 33.77 9.16C33.73 9.29 33.73 9.43 33.78 9.56L34.66 13.29C34.88 13.89 34.18 14.41 33.66 14.04L30.38 11.96C30.27 11.88 30.13 11.84 30 11.84C29.86 11.84 29.72 11.88 29.61 11.96L26.33 14.04C25.81 14.41 25.11 13.89 25.33 13.29L26.21 9.56C26.26 9.43 26.26 9.29 26.22 9.16C26.18 9.03 26.1 8.91 26 8.83L23.58 6.66C23.09 6.28 23.36 5.5 23.99 5.5L27.38 5.5C27.51 5.5 27.64 5.46 27.75 5.38C27.86 5.3 27.95 5.2 28 5.07L29.38 1.25L29.38 1.25Z" fill="#F7AB3A" fill-opacity="1.000000" fill-rule="nonzero"/>
	</g>
	<rect id="Frame" width="16.000000" height="16.000000" transform="translate(44.000000 -0.500000)" fill="#FFFFFF" fill-opacity="0"/>
	<g clip-path="url(#clip6_37)">
		<path id="Vector" d="M51.38 1.25C51.59 0.69 52.4 0.69 52.61 1.25L53.99 5.07C54.09 5.33 54.34 5.5 54.61 5.5L58 5.5C58.63 5.5 58.9 6.28 58.41 6.66L56 8.83C55.89 8.91 55.81 9.03 55.77 9.16C55.73 9.29 55.73 9.43 55.78 9.56L56.66 13.29C56.88 13.89 56.18 14.41 55.66 14.04L52.38 11.96C52.27 11.88 52.13 11.84 52 11.84C51.86 11.84 51.72 11.88 51.61 11.96L48.33 14.04C47.81 14.41 47.11 13.89 47.33 13.29L48.21 9.56C48.26 9.43 48.26 9.29 48.22 9.16C48.18 9.03 48.1 8.91 48 8.83L45.58 6.66C45.09 6.28 45.36 5.5 45.99 5.5L49.38 5.5C49.51 5.5 49.64 5.46 49.75 5.38C49.86 5.3 49.95 5.2 50 5.07L51.38 1.25L51.38 1.25Z" fill="#F7AB3A" fill-opacity="1.000000" fill-rule="nonzero"/>
	</g>
	<rect id="Frame" width="16.000000" height="16.000000" transform="translate(66.000000 -0.500000)" fill="#FFFFFF" fill-opacity="0"/>
	<g clip-path="url(#clip6_39)">
		<path id="Vector" d="M74.61 1.25L75.99 5.07C76.09 5.33 76.33 5.5 76.61 5.5L80 5.5C80.63 5.5 80.9 6.28 80.41 6.66L78 8.83C77.89 8.91 77.81 9.03 77.77 9.16C77.73 9.29 77.73 9.43 77.78 9.56L78.66 13.29C78.88 13.89 78.18 14.41 77.66 14.04L74.38 11.96C74.27 11.88 74.13 11.84 74 11.84C73.86 11.84 73.72 11.88 73.61 11.96L70.33 14.04C69.81 14.41 69.11 13.89 69.33 13.29L70.21 9.56C70.26 9.43 70.26 9.29 70.22 9.16C70.18 9.03 70.1 8.91 70 8.83L67.58 6.66C67.09 6.28 67.36 5.5 67.99 5.5L71.38 5.5C71.51 5.5 71.64 5.46 71.75 5.38C71.86 5.3 71.95 5.2 72 5.07L73.38 1.25L73.38 1.25C73.59 0.69 74.4 0.69 74.61 1.25Z" stroke="#C4CDD5" stroke-opacity="1.000000" stroke-width="0.500000" stroke-linejoin="round"/>
	</g>
	<rect id="Frame" width="16.000000" height="16.000000" transform="translate(88.000000 -0.500000)" fill="#FFFFFF" fill-opacity="0"/>
	<g clip-path="url(#clip6_41)">
		<path id="Vector" d="M96.61 1.25L97.99 5.07C98.09 5.33 98.34 5.5 98.61 5.5L102 5.5C102.63 5.5 102.9 6.28 102.41 6.66L100 8.83C99.89 8.91 99.81 9.03 99.77 9.16C99.73 9.29 99.73 9.43 99.78 9.56L100.66 13.29C100.88 13.89 100.18 14.41 99.66 14.04L96.38 11.96C96.27 11.88 96.13 11.84 96 11.84C95.86 11.84 95.72 11.88 95.61 11.96L92.33 14.04C91.81 14.41 91.11 13.89 91.33 13.29L92.21 9.56C92.26 9.43 92.26 9.29 92.22 9.16C92.18 9.03 92.1 8.91 92 8.83L89.58 6.66C89.09 6.28 89.36 5.5 89.99 5.5L93.38 5.5C93.51 5.5 93.64 5.46 93.75 5.38C93.86 5.3 93.95 5.2 94 5.07L95.38 1.25L95.38 1.25C95.59 0.69 96.4 0.69 96.61 1.25Z" stroke="#C4CDD5" stroke-opacity="1.000000" stroke-width="0.500000" stroke-linejoin="round"/>
	</g>
</svg>
